<svg xmlns="http://www.w3.org/2000/svg" xmlns:xlink="http://www.w3.org/1999/xlink" version="1.1" width="128" height="128" viewBox="0 0 128 128" xml:space="preserve">
<desc>Created with Fabric.js 3.5.0</desc>
<defs>
</defs>
<rect x="0" y="0" width="100%" height="100%" fill="rgba(255,255,255,0)"/>
<g transform="matrix(0.0984 0.4286 -0.4286 0.0984 80.051 63.7356)" id="563593">
<path style="stroke: none; stroke-width: 0; stroke-dasharray: none; stroke-linecap: butt; stroke-dashoffset: 0; stroke-linejoin: miter; stroke-miterlimit: 4; is-custom-font: none; font-file-url: none; fill: rgb(160,112,242); fill-rule: nonzero; opacity: 1;" vector-effect="non-scaling-stroke" transform=" translate(-76, -75)" d="M 115.914 39.484 C 115.002 38.5832 113.965 38.1327 112.809 38.1304 C 112.562 38.1304 112.2 38.1914 111.711 38.311 L 75.5386 47.1449 L 91.1573 5.40851 C 91.4615 4.80767 91.6151 4.26745 91.6151 3.78595 C 91.6151 2.76487 91.2178 1.87893 90.4272 1.12748 C 89.6356 0.375091 88.6611 0 87.5048 0 H 57.5437 C 56.5695 0 55.7175 0.269952 54.9861 0.810802 C 54.2553 1.35228 53.7674 2.04374 53.5246 2.88422 L 35.1643 77.2539 C 34.8594 78.6949 35.2552 79.8672 36.3516 80.7695 C 37.1429 81.4323 38.0861 81.7606 39.1825 81.7606 C 39.6701 81.7606 40.0355 81.7325 40.2789 81.6719 L 77.3648 72.5668 L 59.37 145.404 C 59.1268 146.365 59.2634 147.266 59.7817 148.107 C 60.2997 148.95 61.0765 149.52 62.1112 149.82 C 62.7201 149.939 63.1475 150 63.3907 150 C 65.1568 150 66.4346 149.25 67.2271 147.747 L 116.553 43.4499 C 117.224 42.008 117.012 40.6854 115.914 39.484 Z" stroke-linecap="round"/>
</g>
<g transform="matrix(-0.0922 -0.4299 0.4299 -0.0922 47.7991 64.6714)" id="944361">
<path style="stroke: none; stroke-width: 0; stroke-dasharray: none; stroke-linecap: butt; stroke-dashoffset: 0; stroke-linejoin: miter; stroke-miterlimit: 4; is-custom-font: none; font-file-url: none; fill: rgb(168,140,250); fill-rule: nonzero; opacity: 1;" vector-effect="non-scaling-stroke" transform=" translate(-76, -75)" d="M 115.914 39.484 C 115.002 38.5832 113.965 38.1327 112.809 38.1304 C 112.562 38.1304 112.2 38.1914 111.711 38.311 L 75.5386 47.1449 L 91.1573 5.40851 C 91.4615 4.80767 91.6151 4.26745 91.6151 3.78595 C 91.6151 2.76487 91.2178 1.87893 90.4272 1.12748 C 89.6356 0.375091 88.6611 0 87.5048 0 H 57.5437 C 56.5695 0 55.7175 0.269952 54.9861 0.810802 C 54.2553 1.35228 53.7674 2.04374 53.5246 2.88422 L 35.1643 77.2539 C 34.8594 78.6949 35.2552 79.8672 36.3516 80.7695 C 37.1429 81.4323 38.0861 81.7606 39.1825 81.7606 C 39.6701 81.7606 40.0355 81.7325 40.2789 81.6719 L 77.3648 72.5668 L 59.37 145.404 C 59.1268 146.365 59.2634 147.266 59.7817 148.107 C 60.2997 148.95 61.0765 149.52 62.1112 149.82 C 62.7201 149.939 63.1475 150 63.3907 150 C 65.1568 150 66.4346 149.25 67.2271 147.747 L 116.553 43.4499 C 117.224 42.008 117.012 40.6854 115.914 39.484 Z" stroke-linecap="round"/>
</g>
</svg>